<?xml version="1.0" encoding="UTF-8"?>
<svg xmlns="http://www.w3.org/2000/svg" xmlns:xlink="http://www.w3.org/1999/xlink" width="50px"
    height="50px" viewBox="0 0 50 50" version="1.1">
    <g id="surface1">
        <path
            style=" stroke:none;fill-rule:nonzero;fill:rgb(34.117648%,20.784314%,53.725493%);fill-opacity:1;"
            d="M 24.964844 -0.03125 C 25.0625 -0.03125 25.164062 -0.03125 25.265625 -0.03125 C 26.691406 -0.0234375 28.089844 0 29.492188 0.292969 C 29.585938 0.3125 29.683594 0.332031 29.78125 0.351562 C 33.59375 1.148438 37.15625 2.675781 40.234375 5.078125 C 40.320312 5.144531 40.410156 5.210938 40.5 5.28125 C 42.019531 6.464844 43.449219 7.851562 44.628906 9.375 C 44.703125 9.46875 44.78125 9.5625 44.859375 9.660156 C 48.304688 13.988281 50.046875 19.429688 50.035156 24.933594 C 50.035156 25.082031 50.035156 25.082031 50.035156 25.230469 C 50.03125 27.757812 49.800781 30.355469 48.828125 32.714844 C 48.320312 32.550781 47.808594 32.382812 47.300781 32.21875 C 47.128906 32.164062 46.953125 32.105469 46.78125 32.050781 C 46.53125 31.96875 46.28125 31.890625 46.035156 31.808594 C 45.957031 31.785156 45.878906 31.757812 45.800781 31.734375 C 45.507812 31.636719 45.214844 31.542969 44.921875 31.445312 C 44.945312 31.355469 44.96875 31.265625 44.992188 31.175781 C 45.199219 30.390625 45.375 29.605469 45.527344 28.808594 C 45.550781 28.679688 45.550781 28.679688 45.574219 28.550781 C 45.667969 28.050781 45.738281 27.558594 45.800781 27.050781 C 43.222656 27.050781 40.644531 27.050781 37.988281 27.050781 C 37.988281 27.46875 37.988281 27.890625 37.988281 28.320312 C 37.976562 28.554688 37.957031 28.789062 37.933594 29.023438 C 37.921875 29.144531 37.910156 29.261719 37.898438 29.382812 C 37.886719 29.507812 37.875 29.628906 37.859375 29.753906 C 37.847656 29.882812 37.835938 30.007812 37.820312 30.140625 C 37.71875 31.105469 37.585938 32.054688 37.402344 33.007812 C 36.542969 32.945312 35.703125 32.816406 34.855469 32.671875 C 34.726562 32.652344 34.597656 32.628906 34.46875 32.609375 C 34.34375 32.585938 34.222656 32.566406 34.097656 32.542969 C 33.929688 32.515625 33.929688 32.515625 33.761719 32.488281 C 33.496094 32.421875 33.496094 32.421875 33.300781 32.226562 C 33.3125 31.972656 33.3125 31.972656 33.359375 31.644531 C 33.378906 31.523438 33.394531 31.402344 33.414062 31.277344 C 33.433594 31.148438 33.453125 31.019531 33.472656 30.890625 C 33.664062 29.609375 33.773438 28.34375 33.886719 27.050781 C 31.632812 27.050781 29.375 27.050781 27.050781 27.050781 C 27.050781 28.984375 27.050781 30.917969 27.050781 32.910156 C 25.695312 32.910156 24.34375 32.910156 22.949219 32.910156 C 22.949219 30.976562 22.949219 29.042969 22.949219 27.050781 C 20.695312 27.050781 18.4375 27.050781 16.113281 27.050781 C 16.203125 27.976562 16.203125 27.976562 16.296875 28.925781 C 16.324219 29.214844 16.324219 29.214844 16.351562 29.507812 C 16.433594 30.332031 16.523438 31.152344 16.664062 31.972656 C 16.699219 32.222656 16.707031 32.460938 16.699219 32.714844 C 16.175781 32.8125 15.652344 32.910156 15.128906 33.007812 C 14.953125 33.039062 14.773438 33.074219 14.597656 33.105469 C 14.339844 33.152344 14.085938 33.203125 13.828125 33.25 C 13.75 33.265625 13.667969 33.277344 13.585938 33.292969 C 13.285156 33.351562 13.003906 33.398438 12.695312 33.398438 C 12.5 32.71875 12.410156 32.03125 12.324219 31.335938 C 12.300781 31.136719 12.273438 30.9375 12.246094 30.738281 C 12.089844 29.5 12.011719 28.304688 12.011719 27.050781 C 9.433594 27.050781 6.855469 27.050781 4.199219 27.050781 C 4.449219 28.613281 4.679688 30.058594 5.175781 31.542969 C 5.203125 31.625 5.230469 31.707031 5.257812 31.792969 C 5.886719 33.632812 6.75 35.445312 7.910156 37.011719 C 7.949219 37.0625 7.984375 37.113281 8.023438 37.167969 C 8.507812 37.824219 9.019531 38.449219 9.574219 39.046875 C 9.730469 39.21875 9.875 39.390625 10.015625 39.570312 C 10.328125 39.925781 10.671875 40.222656 11.035156 40.527344 C 11.136719 40.613281 11.238281 40.703125 11.335938 40.789062 C 11.925781 41.300781 12.515625 41.777344 13.183594 42.1875 C 13.046875 42.566406 12.867188 42.878906 12.644531 43.214844 C 12.578125 43.316406 12.507812 43.417969 12.441406 43.523438 C 12.367188 43.628906 12.296875 43.734375 12.226562 43.839844 C 12.15625 43.945312 12.085938 44.050781 12.015625 44.160156 C 11.675781 44.664062 11.339844 45.152344 10.9375 45.605469 C 10.539062 45.550781 10.273438 45.324219 9.96875 45.082031 C 9.910156 45.035156 9.855469 44.992188 9.796875 44.945312 C 9.625 44.808594 9.449219 44.671875 9.277344 44.53125 C 9.128906 44.414062 9.128906 44.414062 8.976562 44.292969 C 7.625 43.183594 6.324219 41.929688 5.273438 40.527344 C 5.191406 40.421875 5.105469 40.3125 5.023438 40.207031 C 3.921875 38.761719 3.015625 37.191406 2.246094 35.546875 C 2.21875 35.488281 2.1875 35.425781 2.160156 35.367188 C 1.425781 33.816406 0.875 32.179688 0.507812 30.503906 C 0.488281 30.425781 0.472656 30.34375 0.453125 30.261719 C 0.0898438 28.515625 -0.0507812 26.785156 -0.0351562 25.007812 C -0.0351562 24.90625 -0.0351562 24.808594 -0.0351562 24.707031 C -0.0273438 23.292969 0 21.898438 0.292969 20.507812 C 0.3125 20.414062 0.332031 20.316406 0.351562 20.21875 C 1.335938 15.511719 3.488281 11.15625 6.855469 7.699219 C 7.03125 7.519531 7.203125 7.339844 7.375 7.160156 C 8.066406 6.445312 8.792969 5.804688 9.589844 5.207031 C 9.769531 5.074219 9.945312 4.941406 10.117188 4.808594 C 10.941406 4.183594 11.792969 3.640625 12.691406 3.136719 C 12.875 3.035156 13.054688 2.933594 13.234375 2.828125 C 16.808594 0.820312 20.898438 -0.046875 24.964844 -0.03125 Z M 21.484375 5.859375 C 20.351562 7.085938 19.554688 8.558594 18.847656 10.058594 C 18.796875 10.164062 18.746094 10.269531 18.695312 10.378906 C 17.269531 13.546875 16.59375 17.03125 16.230469 20.464844 C 16.21875 20.578125 16.203125 20.695312 16.191406 20.8125 C 16.121094 21.535156 16.113281 22.210938 16.113281 22.949219 C 18.367188 22.949219 20.625 22.949219 22.949219 22.949219 C 22.949219 16.953125 22.949219 10.960938 22.949219 4.785156 C 22.449219 4.785156 21.832031 5.519531 21.484375 5.859375 Z M 27.050781 4.785156 C 27.050781 10.78125 27.050781 16.773438 27.050781 22.949219 C 29.304688 22.949219 31.5625 22.949219 33.886719 22.949219 C 33.886719 21.96875 33.886719 21.96875 33.820312 21 C 33.816406 20.933594 33.808594 20.863281 33.800781 20.792969 C 33.777344 20.574219 33.753906 20.355469 33.726562 20.136719 C 33.71875 20.058594 33.710938 19.984375 33.703125 19.902344 C 33.265625 16.082031 32.378906 12.300781 30.566406 8.886719 C 30.496094 8.746094 30.496094 8.746094 30.421875 8.601562 C 29.679688 7.167969 28.621094 5.660156 27.246094 4.785156 C 27.179688 4.785156 27.117188 4.785156 27.050781 4.785156 Z M 12.988281 7.8125 C 12.886719 7.886719 12.78125 7.960938 12.675781 8.039062 C 11.738281 8.738281 10.886719 9.523438 10.058594 10.351562 C 9.984375 10.421875 9.910156 10.492188 9.835938 10.566406 C 6.757812 13.53125 4.683594 17.9375 4.199219 22.167969 C 4.199219 22.425781 4.199219 22.683594 4.199219 22.949219 C 6.777344 22.949219 9.355469 22.949219 12.011719 22.949219 C 12.109375 21.789062 12.207031 20.628906 12.304688 19.433594 C 12.703125 16.449219 13.269531 13.589844 14.257812 10.742188 C 14.28125 10.671875 14.304688 10.597656 14.332031 10.527344 C 14.863281 8.9375 15.65625 7.449219 16.40625 5.957031 C 15.367188 5.957031 13.8125 7.207031 12.988281 7.8125 Z M 33.59375 5.957031 C 33.640625 6.050781 33.6875 6.144531 33.738281 6.242188 C 36.449219 11.613281 37.527344 16.972656 37.988281 22.949219 C 40.566406 22.949219 43.144531 22.949219 45.800781 22.949219 C 45.800781 22.265625 45.800781 22.265625 45.710938 21.613281 C 45.691406 21.511719 45.671875 21.414062 45.652344 21.3125 C 45.628906 21.207031 45.609375 21.101562 45.585938 20.996094 C 45.566406 20.886719 45.542969 20.777344 45.519531 20.667969 C 45.339844 19.8125 45.125 18.984375 44.824219 18.164062 C 44.796875 18.089844 44.769531 18.019531 44.742188 17.941406 C 43.765625 15.285156 42.351562 12.957031 40.4375 10.871094 C 40.296875 10.714844 40.164062 10.554688 40.035156 10.390625 C 39.863281 10.179688 39.695312 10.011719 39.488281 9.839844 C 39.273438 9.65625 39.058594 9.46875 38.851562 9.273438 C 37.773438 8.257812 35.183594 5.957031 33.59375 5.957031 Z M 33.59375 5.957031 " />
        <path
            style=" stroke:none;fill-rule:nonzero;fill:rgb(87.058824%,0%,16.078432%);fill-opacity:1;"
            d="M 45.613281 36.886719 C 45.800781 36.886719 45.800781 36.886719 45.996094 36.886719 C 46.328125 36.886719 46.660156 36.890625 46.988281 36.894531 C 47.328125 36.898438 47.667969 36.898438 48.007812 36.898438 C 48.671875 36.902344 49.335938 36.910156 50 36.914062 C 50 37.945312 50 38.976562 50 40.039062 C 49.59375 40.042969 49.1875 40.046875 48.769531 40.054688 C 48.445312 40.058594 48.121094 40.0625 47.796875 40.066406 C 47.453125 40.070312 47.113281 40.078125 46.769531 40.082031 C 46.378906 40.085938 45.984375 40.089844 45.59375 40.097656 C 45.472656 40.097656 45.347656 40.097656 45.222656 40.101562 C 45.109375 40.101562 44.996094 40.105469 44.878906 40.105469 C 44.777344 40.105469 44.675781 40.109375 44.574219 40.109375 C 44.320312 40.113281 44.320312 40.113281 44.140625 40.332031 C 44.109375 40.878906 44.078125 41.429688 44.042969 41.992188 C 46.007812 41.992188 47.976562 41.992188 50 41.992188 C 50 42.992188 50 43.992188 50 45.019531 C 48.035156 45.019531 46.070312 45.019531 44.042969 45.019531 C 43.949219 46.53125 43.949219 46.53125 44.335938 46.875 C 44.585938 46.90625 44.585938 46.90625 44.878906 46.90625 C 44.992188 46.90625 45.105469 46.910156 45.222656 46.910156 C 45.34375 46.914062 45.46875 46.914062 45.59375 46.914062 C 45.71875 46.917969 45.84375 46.917969 45.972656 46.921875 C 46.308594 46.925781 46.640625 46.929688 46.976562 46.933594 C 47.316406 46.9375 47.65625 46.941406 47.996094 46.949219 C 48.664062 46.957031 49.332031 46.964844 50 46.972656 C 50 47.972656 50 48.96875 50 50 C 48.460938 50.019531 48.460938 50.019531 47.800781 50.023438 C 47.351562 50.027344 46.902344 50.03125 46.453125 50.035156 C 46.089844 50.042969 45.726562 50.046875 45.363281 50.046875 C 45.226562 50.046875 45.089844 50.050781 44.953125 50.050781 C 43.914062 50.070312 43 49.925781 42.152344 49.292969 C 41.3125 48.414062 40.90625 47.425781 40.902344 46.214844 C 40.902344 46.152344 40.902344 46.085938 40.902344 46.019531 C 40.902344 45.808594 40.902344 45.597656 40.902344 45.382812 C 40.902344 45.234375 40.902344 45.085938 40.902344 44.9375 C 40.898438 44.628906 40.898438 44.316406 40.898438 44.007812 C 40.898438 43.613281 40.898438 43.214844 40.898438 42.820312 C 40.894531 42.511719 40.894531 42.207031 40.894531 41.898438 C 40.894531 41.753906 40.894531 41.609375 40.894531 41.460938 C 40.886719 40.125 41.050781 39.179688 41.816406 38.066406 C 42.867188 37.015625 44.1875 36.867188 45.613281 36.886719 Z M 45.613281 36.886719 " />
        <path
            style=" stroke:none;fill-rule:nonzero;fill:rgb(87.058824%,0%,16.078432%);fill-opacity:1;"
            d="M 33.59375 36.621094 C 33.796875 37.277344 33.996094 37.933594 34.199219 38.589844 C 34.265625 38.8125 34.335938 39.035156 34.402344 39.257812 C 35.132812 41.632812 35.132812 41.632812 35.449219 42.773438 C 35.648438 42.476562 35.726562 42.25 35.828125 41.910156 C 35.863281 41.792969 35.898438 41.675781 35.933594 41.554688 C 35.972656 41.425781 36.011719 41.296875 36.046875 41.171875 C 36.085938 41.039062 36.125 40.910156 36.164062 40.777344 C 36.269531 40.433594 36.371094 40.089844 36.472656 39.746094 C 36.578125 39.390625 36.683594 39.042969 36.785156 38.691406 C 36.992188 38 37.199219 37.3125 37.402344 36.621094 C 37.871094 36.671875 38.300781 36.738281 38.75 36.878906 C 38.898438 36.921875 38.898438 36.921875 39.050781 36.96875 C 39.152344 37.003906 39.25 37.035156 39.355469 37.066406 C 39.460938 37.097656 39.5625 37.132812 39.667969 37.164062 C 39.921875 37.242188 40.175781 37.324219 40.429688 37.402344 C 40.292969 38.054688 40.121094 38.691406 39.929688 39.328125 C 39.902344 39.429688 39.871094 39.53125 39.839844 39.632812 C 39.742188 39.964844 39.644531 40.292969 39.546875 40.625 C 39.476562 40.855469 39.40625 41.085938 39.339844 41.320312 C 39.195312 41.800781 39.050781 42.285156 38.90625 42.769531 C 38.722656 43.386719 38.539062 44.007812 38.355469 44.625 C 38.210938 45.101562 38.070312 45.578125 37.925781 46.054688 C 37.859375 46.285156 37.792969 46.511719 37.722656 46.738281 C 37.628906 47.058594 37.535156 47.378906 37.4375 47.695312 C 37.410156 47.789062 37.382812 47.882812 37.355469 47.980469 C 36.90625 49.457031 36.90625 49.457031 36.230469 49.902344 C 35.84375 50.09375 35.382812 50.042969 34.960938 50 C 34.417969 49.742188 34.109375 49.351562 33.898438 48.800781 C 33.808594 48.53125 33.726562 48.257812 33.648438 47.984375 C 33.617188 47.882812 33.585938 47.777344 33.554688 47.671875 C 33.449219 47.332031 33.347656 46.988281 33.25 46.648438 C 33.175781 46.410156 33.105469 46.171875 33.035156 45.933594 C 32.886719 45.433594 32.738281 44.9375 32.589844 44.4375 C 32.398438 43.800781 32.207031 43.164062 32.019531 42.523438 C 31.835938 41.914062 31.652344 41.304688 31.472656 40.695312 C 31.4375 40.582031 31.402344 40.464844 31.367188 40.34375 C 31.269531 40.015625 31.171875 39.6875 31.074219 39.359375 C 31.042969 39.261719 31.015625 39.164062 30.984375 39.066406 C 30.824219 38.515625 30.683594 37.964844 30.566406 37.402344 C 30.933594 37.289062 31.304688 37.179688 31.671875 37.070312 C 31.859375 37.011719 32.042969 36.957031 32.230469 36.898438 C 32.347656 36.863281 32.46875 36.828125 32.589844 36.792969 C 32.695312 36.757812 32.804688 36.726562 32.917969 36.691406 C 33.203125 36.621094 33.203125 36.621094 33.59375 36.621094 Z M 33.59375 36.621094 " />
        <path
            style=" stroke:none;fill-rule:nonzero;fill:rgb(87.058824%,0%,16.470589%);fill-opacity:1;"
            d="M 16.992188 36.914062 C 17.992188 36.914062 18.992188 36.914062 20.019531 36.914062 C 20.019531 40.234375 20.019531 43.554688 20.019531 46.972656 C 22.015625 46.972656 24.015625 46.972656 26.074219 46.972656 C 26.074219 47.972656 26.074219 48.96875 26.074219 50 C 25.027344 50.007812 23.980469 50.015625 22.933594 50.019531 C 22.449219 50.023438 21.960938 50.023438 21.476562 50.03125 C 21.007812 50.035156 20.539062 50.035156 20.070312 50.035156 C 19.890625 50.039062 19.710938 50.039062 19.53125 50.042969 C 19.28125 50.042969 19.03125 50.042969 18.78125 50.042969 C 18.707031 50.046875 18.632812 50.046875 18.554688 50.046875 C 18.050781 50.042969 17.765625 49.9375 17.382812 49.609375 C 16.886719 49.078125 16.9375 48.53125 16.949219 47.84375 C 16.949219 47.726562 16.949219 47.609375 16.949219 47.488281 C 16.949219 47.164062 16.949219 46.839844 16.953125 46.519531 C 16.953125 46.179688 16.957031 45.84375 16.957031 45.503906 C 16.957031 44.867188 16.960938 44.226562 16.964844 43.589844 C 16.96875 42.859375 16.96875 42.132812 16.972656 41.40625 C 16.976562 39.90625 16.984375 38.410156 16.992188 36.914062 Z M 16.992188 36.914062 " />
        <path
            style=" stroke:none;fill-rule:nonzero;fill:rgb(86.666667%,0%,16.078432%);fill-opacity:1;"
            d="M 26.953125 36.914062 C 27.984375 36.914062 29.015625 36.914062 30.078125 36.914062 C 30.078125 41.234375 30.078125 45.550781 30.078125 50 C 29.046875 50 28.015625 50 26.953125 50 C 26.953125 45.679688 26.953125 41.363281 26.953125 36.914062 Z M 26.953125 36.914062 " />
    </g>
</svg>